<?xml version="1.0" standalone="no"?>
<!DOCTYPE svg PUBLIC "-//W3C//DTD SVG 20010904//EN"
 "http://www.w3.org/TR/2001/REC-SVG-20010904/DTD/svg10.dtd">
<svg version="1.0" xmlns="http://www.w3.org/2000/svg"
 width="464.000000pt" height="130.000000pt" viewBox="0 0 464.000000 130.000000"
 preserveAspectRatio="xMidYMid meet">

<g transform="translate(0.000000,130.000000) scale(0.100000,-0.100000)"
fill="#000000" stroke="none">
<path d="M2324 987 l6 -56 -54 -40 c-60 -45 -96 -86 -96 -110 1 -9 7 -2 14 15
8 17 31 44 52 60 22 15 51 39 66 52 26 24 26 24 37 4 6 -12 31 -35 56 -53 72
-52 115 -168 63 -170 -19 0 -20 -2 -6 -7 10 -4 -41 -7 -112 -6 -72 0 -130 -3
-130 -7 0 -10 56 -19 114 -18 49 2 50 2 16 10 -24 5 -12 6 38 3 84 -6 112 0
112 25 0 9 6 25 13 34 11 16 15 14 40 -18 33 -42 29 -65 -10 -65 -15 0 -35 -5
-43 -10 -11 -7 -5 -10 23 -10 23 0 37 -5 37 -12 0 -7 7 0 15 16 20 37 19 42
-10 80 -16 21 -26 48 -27 72 -1 36 -2 36 -5 7 -2 -17 -11 -37 -19 -43 -12 -10
-15 -7 -21 21 -4 24 -26 53 -75 99 -44 43 -68 73 -68 88 0 12 -4 22 -10 22 -5
0 -10 12 -10 28 0 21 2 24 11 12 8 -12 10 -12 7 4 -2 11 -9 21 -17 24 -11 4
-13 -6 -7 -51z"/>
<path d="M1715 932 c-4 -40 -4 -76 -1 -79 3 -4 6 14 7 38 0 34 2 39 9 24 7
-16 9 -13 9 15 0 75 -16 77 -24 2z"/>
<path d="M1741 830 c-2 -29 -4 -32 -11 -15 -7 16 -9 14 -9 -15 -1 -43 15 -73
24 -48 7 19 35 13 35 -7 0 -7 -7 -18 -15 -25 -10 -8 -15 -9 -15 -2 0 6 -6 9
-14 6 -16 -6 -56 12 -56 26 0 5 8 11 18 14 13 4 13 4 -3 3 -31 -3 -30 -33 3
-46 27 -11 28 -15 27 -69 -2 -46 -1 -48 2 -9 2 26 7 47 12 47 15 0 51 41 51
59 0 10 -9 21 -19 24 -15 4 -21 16 -24 48 -3 41 -4 41 -6 9z"/>
<path d="M1547 794 c-4 -4 -6 -32 -5 -63 l1 -56 7 50 c4 29 8 40 10 25 1 -15
4 -19 7 -9 5 20 -11 62 -20 53z"/>
<path d="M2131 755 c-1 -17 -12 -43 -27 -60 -23 -27 -25 -35 -19 -82 l6 -53
-40 0 c-39 0 -40 1 -46 38 -10 56 -13 61 -14 20 -2 -60 5 -68 61 -68 l50 0 -6
58 c-6 52 -4 60 19 86 14 15 27 27 28 25 1 -2 12 -16 25 -30 32 -37 21 -59
-32 -60 -33 -1 -36 -2 -16 -8 32 -9 70 -2 77 14 2 8 0 33 -5 57 -6 28 -10 34
-11 18 l-1 -24 -16 22 c-9 13 -20 35 -24 50 l-8 27 -1 -30z"/>
<path d="M1572 695 c0 -16 2 -22 5 -12 2 9 2 23 0 30 -3 6 -5 -1 -5 -18z"/>
<path d="M1856 677 c-4 -24 -2 -54 3 -68 5 -13 10 -18 10 -11 1 18 19 15 24
-5 3 -10 5 3 6 29 1 50 -12 98 -28 98 -5 0 -12 -19 -15 -43z m34 -24 c0 -14
-6 -23 -15 -23 -16 0 -18 12 -8 48 4 18 8 20 14 10 5 -7 9 -23 9 -35z"/>
<path d="M2767 703 c-4 -3 -6 -56 -5 -117 1 -81 3 -92 5 -42 4 62 6 68 23 63
17 -4 20 0 20 30 0 51 -23 87 -43 66z m29 -27 c6 -26 -1 -46 -17 -46 -5 0 -9
16 -9 35 0 40 17 47 26 11z"/>
<path d="M3076 695 c-11 -8 -34 -15 -52 -15 -18 0 -36 -4 -39 -10 -3 -5 -16
-10 -28 -10 -12 0 -29 -5 -37 -10 -10 -6 41 -9 150 -8 151 2 155 3 43 5 -71 2
-123 8 -123 13 0 6 15 10 34 10 19 0 48 8 64 17 28 16 33 16 91 -2 33 -11 61
-23 61 -27 0 -5 8 -8 18 -8 30 0 44 -16 58 -66 12 -46 13 -47 15 -16 6 76 10
71 -81 104 -105 37 -149 43 -174 23z m254 -70 c0 -8 -2 -15 -4 -15 -2 0 -6 7
-10 15 -3 8 -1 15 4 15 6 0 10 -7 10 -15z"/>
<path d="M1754 525 c0 -88 2 -123 3 -77 2 46 2 118 0 160 -1 42 -3 5 -3 -83z"/>
<path d="M1291 628 c-1 -25 2 -48 7 -50 17 -7 66 -83 68 -106 4 -36 14 -40 14
-5 0 21 -12 45 -35 73 -19 23 -37 57 -40 78 -10 58 -13 61 -14 10z"/>
<path d="M1533 600 c0 -41 2 -58 4 -37 2 20 2 54 0 75 -2 20 -4 3 -4 -38z"/>
<path d="M1582 630 c0 -19 2 -27 5 -17 2 9 2 25 0 35 -3 9 -5 1 -5 -18z"/>
<path d="M930 633 c0 -14 2 -15 9 -5 6 10 31 13 95 10 47 -2 86 0 86 5 0 4
-43 7 -95 7 -84 0 -95 -2 -95 -17z"/>
<path d="M2670 621 c0 -35 -23 -61 -53 -62 -12 0 -16 -3 -9 -6 7 -3 26 0 43 7
25 11 29 18 29 51 0 22 -2 39 -5 39 -3 0 -5 -13 -5 -29z"/>
<path d="M741 568 c0 -33 3 -58 9 -58 11 0 11 40 0 85 -6 25 -8 20 -9 -27z"/>
<path d="M2903 613 c-17 -6 -16 -38 2 -93 l15 -45 -6 40 c-16 94 -20 89 81 96
l90 5 -85 1 c-47 1 -91 -1 -97 -4z"/>
<path d="M1122 389 c-2 -191 -4 -228 -17 -233 -23 -8 -19 -46 5 -46 13 0 20 7
20 19 0 11 8 22 18 24 16 4 16 5 0 6 -16 1 -18 21 -21 229 l-2 227 -3 -226z
m-6 -266 c-10 -10 -19 5 -10 18 6 11 8 11 12 0 2 -7 1 -15 -2 -18z"/>
<path d="M3158 603 c23 -2 59 -2 80 0 20 2 1 4 -43 4 -44 0 -61 -2 -37 -4z"/>
<path d="M3857 582 c17 -15 38 -42 47 -61 10 -18 20 -30 23 -27 12 12 -67 116
-88 116 -6 0 2 -12 18 -28z"/>
<path d="M3760 578 c-41 -28 -86 -85 -94 -118 l-6 -25 12 25 c37 76 121 148
139 118 7 -10 9 -9 9 5 0 23 -20 21 -60 -5z"/>
<path d="M1593 550 c0 -25 2 -35 4 -22 2 12 2 32 0 45 -2 12 -4 2 -4 -23z"/>
<path d="M1848 528 c-2 -29 -2 -74 0 -100 4 -45 6 -48 33 -48 26 0 29 -3 29
-32 0 -17 2 -29 4 -27 3 3 1 52 -3 109 -7 84 -8 93 -10 43 0 -37 -5 -63 -12
-63 -5 0 -7 -4 -4 -10 3 -5 0 -10 -8 -10 -16 0 -17 8 -17 113 0 42 -2 77 -4
77 -2 0 -5 -24 -8 -52z"/>
<path d="M2570 570 c0 -5 5 -10 11 -10 5 0 7 5 4 10 -3 6 -8 10 -11 10 -2 0
-4 -4 -4 -10z"/>
<path d="M2803 510 c0 -41 2 -58 4 -37 2 20 2 54 0 75 -2 20 -4 3 -4 -38z"/>
<path d="M944 480 c0 -52 1 -74 3 -47 2 26 2 68 0 95 -2 26 -3 4 -3 -48z"/>
<path d="M1280 561 c0 -5 -11 -22 -23 -38 -16 -18 -24 -42 -25 -68 -1 -28 -8
-45 -24 -58 -21 -18 -21 -20 -5 -32 16 -12 15 -45 -2 -45 -4 0 -15 -6 -25 -13
-16 -11 -16 -15 -1 -49 17 -43 20 -84 5 -91 -6 -3 -5 -4 2 -3 14 3 17 58 5 92
-7 20 -4 21 111 28 65 4 126 4 136 0 13 -5 17 -3 14 7 -4 11 -30 13 -127 10
l-123 -3 18 27 c15 23 19 24 26 11 5 -9 21 -15 36 -15 21 1 22 2 7 6 -49 12
-35 23 27 23 37 0 70 -4 73 -10 3 -5 -4 -11 -17 -11 -18 -1 -19 -2 -4 -6 10
-3 23 0 29 6 20 20 -12 31 -88 31 -38 0 -77 5 -85 10 -27 17 18 39 82 40 50 0
61 -4 83 -27 26 -28 37 -13 12 17 -13 16 -13 16 -92 19 -52 1 -55 3 -55 26 0
23 4 25 48 27 46 1 46 1 7 5 -66 6 -70 10 -41 44 24 28 33 49 21 49 -3 0 -5
-4 -5 -9z"/>
<path d="M1714 485 c0 -49 1 -71 3 -48 2 23 2 64 0 90 -2 26 -3 8 -3 -42z"/>
<path d="M3843 505 c0 -38 2 -53 4 -32 2 20 2 52 0 70 -2 17 -4 1 -4 -38z"/>
<path d="M1983 505 c0 -33 2 -45 4 -27 2 18 2 45 0 60 -2 15 -4 0 -4 -33z"/>
<path d="M3803 515 c0 -22 2 -30 4 -17 2 12 2 30 0 40 -3 9 -5 -1 -4 -23z"/>
<path d="M3334 420 c0 -63 1 -89 3 -57 2 31 2 83 0 115 -2 31 -3 5 -3 -58z"/>
<path d="M700 445 l0 -75 -65 0 -65 0 -1 -102 c0 -57 -3 -98 -5 -91 -4 8 -11
7 -25 -5 -23 -20 -24 -32 -4 -32 8 0 15 5 15 10 0 14 28 12 33 -2 2 -7 8 -10
12 -5 5 4 3 13 -3 19 -8 8 -12 47 -12 105 l0 93 60 0 60 0 1 -32 c1 -31 1 -32
9 -8 5 15 6 0 3 -41 -4 -46 -2 -69 7 -74 12 -7 11 35 -6 219 -4 48 -2 71 6 76
8 5 7 9 -4 13 -14 6 -16 -4 -16 -68z"/>
<path d="M853 513 l57 -4 0 -194 c0 -179 1 -195 18 -194 10 0 12 3 5 6 -10 3
-13 53 -13 199 l0 194 -62 -2 -63 -2 58 -3z"/>
<path d="M1517 461 c-4 -35 -5 -66 -3 -68 6 -7 19 103 14 119 -3 7 -8 -16 -11
-51z"/>
<path d="M2672 400 c-1 -63 -5 -125 -8 -137 -4 -13 -2 -23 4 -23 15 0 17 26
11 155 l-5 120 -2 -115z"/>
<path d="M4005 468 c27 -24 58 -64 71 -93 13 -27 24 -43 24 -35 0 27 -59 118
-93 144 -53 41 -55 30 -2 -16z"/>
<path d="M1602 470 c0 -19 2 -27 5 -17 2 9 2 25 0 35 -3 9 -5 1 -5 -18z"/>
<path d="M3588 444 c-43 -46 -67 -81 -68 -99 0 -5 10 6 21 25 12 19 37 51 56
70 28 29 35 32 43 20 8 -12 10 -11 10 8 0 33 -14 27 -62 -24z"/>
<path d="M3062 460 c-19 -18 -22 -30 -20 -93 l2 -72 3 70 c4 75 20 105 58 105
11 0 27 -6 35 -12 12 -11 12 -10 1 5 -18 23 -52 22 -79 -3z"/>
<path d="M3931 480 c-1 -3 7 -30 18 -59 l18 -52 7 32 c8 42 6 71 -3 39 -8 -25
-8 -25 -24 10 -8 19 -16 33 -16 30z"/>
<path d="M2771 420 c-1 -25 -4 -56 -6 -70 -5 -24 -5 -24 4 -2 15 32 21 27 21
-15 0 -28 -3 -34 -10 -23 -7 10 -10 11 -10 2 0 -7 8 -16 18 -20 12 -5 4 -9
-28 -13 l-45 -6 53 -1 c40 -2 52 1 52 13 0 8 -5 15 -11 15 -7 0 -10 18 -7 48
1 26 -1 48 -7 49 -5 1 -13 17 -16 35 -6 31 -6 30 -8 -12z"/>
<path d="M2923 390 c0 -41 2 -58 4 -37 2 20 2 54 0 75 -2 20 -4 3 -4 -38z"/>
<path d="M3793 410 c0 -30 2 -43 4 -27 2 15 2 39 0 55 -2 15 -4 2 -4 -28z"/>
<path d="M3631 398 c0 -27 4 -48 9 -48 6 0 10 11 10 24 0 13 3 33 6 43 5 14 4
15 -4 4 -8 -11 -11 -10 -15 5 -2 10 -5 -2 -6 -28z"/>
<path d="M1993 380 c0 -30 2 -43 4 -27 2 15 2 39 0 55 -2 15 -4 2 -4 -28z"/>
<path d="M3161 405 c1 -5 7 -41 15 -80 l14 -70 -5 57 c-4 46 -24 126 -24 93z"/>
<path d="M1603 365 c0 -22 2 -30 4 -17 2 12 2 30 0 40 -3 9 -5 -1 -4 -23z"/>
<path d="M3853 350 c0 -30 2 -43 4 -27 2 15 2 39 0 55 -2 15 -4 2 -4 -28z"/>
<path d="M1703 300 c0 -47 2 -66 4 -42 2 23 2 61 0 85 -2 23 -4 4 -4 -43z"/>
<path d="M954 245 c0 -72 1 -99 3 -62 2 37 2 96 0 130 -2 34 -3 4 -3 -68z"/>
<path d="M1513 315 c0 -33 2 -45 4 -27 2 18 2 45 0 60 -2 15 -4 0 -4 -33z"/>
<path d="M1839 270 c-6 -116 -4 -140 7 -61 l7 51 41 1 c22 1 33 3 23 6 -13 3
-16 11 -12 26 5 19 5 20 -5 5 -6 -10 -20 -18 -30 -18 -15 0 -19 9 -22 48 -2
28 -5 5 -9 -58z"/>
<path d="M1763 320 c0 -25 2 -35 4 -22 2 12 2 32 0 45 -2 12 -4 2 -4 -23z"/>
<path d="M3450 300 l21 -30 -39 0 -40 0 6 -46 c6 -53 -4 -64 -56 -64 -32 0
-33 1 -28 38 l6 37 -11 -33 c-6 -20 -19 -36 -35 -42 -32 -13 -54 -13 -35 -1
17 11 -40 20 -78 12 -24 -5 -23 -6 14 -14 53 -13 206 -9 223 6 9 7 12 26 10
54 l-3 43 44 0 43 0 -16 25 c-17 26 -17 26 10 23 17 -2 29 3 32 12 4 12 3 13
-10 3 -8 -7 -17 -11 -19 -9 -2 2 -17 6 -32 10 l-29 7 22 -31z"/>
<path d="M3784 271 c1 -49 5 -66 18 -75 25 -15 39 3 43 55 l4 44 -8 -38 c-9
-41 -26 -65 -38 -53 -5 4 -11 35 -14 69 l-6 62 1 -64z"/>
<path d="M4123 323 c-13 -2 -23 -9 -23 -15 0 -6 7 -7 18 -3 36 15 52 17 52 7
0 -6 -4 -14 -10 -17 -5 -3 -10 -13 -10 -21 0 -10 12 -14 45 -14 42 0 45 -2 46
-27 l1 -28 7 25 c11 35 6 40 -45 40 -50 0 -53 4 -22 37 l21 23 -29 -1 c-16 -1
-39 -4 -51 -6z"/>
<path d="M1612 295 c0 -16 2 -22 5 -12 2 9 2 23 0 30 -3 6 -5 -1 -5 -18z"/>
<path d="M450 304 c36 -8 100 -9 100 -2 0 5 -26 7 -57 7 -32 -1 -51 -3 -43 -5z"/>
<path d="M1990 297 c0 -9 -11 -17 -27 -20 l-28 -4 28 -2 c26 -1 48 22 33 36
-3 4 -6 -1 -6 -10z"/>
<path d="M2912 243 c-2 -66 -4 -72 -24 -76 -20 -4 -20 -4 4 -6 14 0 28 -7 31
-13 2 -7 8 -10 12 -6 4 4 3 13 -3 21 -6 7 -13 44 -15 82 l-3 70 -2 -72z"/>
<path d="M393 293 c9 -2 23 -2 30 0 6 3 -1 5 -18 5 -16 0 -22 -2 -12 -5z"/>
<path d="M3322 270 c0 -19 2 -27 5 -17 2 9 2 25 0 35 -3 9 -5 1 -5 -18z"/>
<path d="M382 260 c0 -14 2 -19 5 -12 2 6 2 18 0 25 -3 6 -5 1 -5 -13z"/>
<path d="M2832 223 c-1 -36 -7 -55 -18 -61 -15 -8 -15 -10 0 -15 9 -4 16 -2
16 3 0 6 8 10 18 10 11 0 13 3 5 8 -6 4 -13 30 -16 57 l-3 50 -2 -52z"/>
<path d="M1432 213 c-1 -29 -6 -53 -12 -53 -5 0 -10 -9 -10 -20 0 -11 7 -20
15 -20 8 0 15 9 15 20 0 16 7 20 30 20 17 0 30 4 30 8 0 5 -13 7 -29 4 -29 -4
-30 -3 -34 44 l-3 49 -2 -52z"/>
<path d="M1622 230 c0 -19 2 -27 5 -17 2 9 2 25 0 35 -3 9 -5 1 -5 -18z"/>
<path d="M1773 215 c0 -27 2 -38 4 -22 2 15 2 37 0 50 -2 12 -4 0 -4 -28z"/>
<path d="M1502 220 c0 -19 2 -27 5 -17 2 9 2 25 0 35 -3 9 -5 1 -5 -18z"/>
<path d="M3041 208 c-1 -24 -5 -28 -33 -29 l-33 -1 30 -8 30 -7 -30 -5 -30 -5
30 3 c17 1 48 7 70 12 39 9 39 10 8 11 -27 1 -32 5 -36 29 l-4 27 -2 -27z"/>
<path d="M1691 174 c-1 -39 -9 -46 -32 -33 -11 5 -19 6 -19 1 0 -16 39 -21 50
-7 6 8 10 26 7 42 l-4 28 -2 -31z"/>
<path d="M382 174 c-7 -8 -8 -14 -3 -14 10 0 25 19 20 25 -2 1 -10 -3 -17 -11z"/>
<path d="M1631 174 c0 -11 3 -14 6 -6 3 7 2 16 -1 19 -3 4 -6 -2 -5 -13z"/>
<path d="M4231 168 c-1 -20 -6 -28 -19 -28 -21 0 -42 -18 -42 -37 0 -24 50
-15 62 12 10 23 16 24 102 28 l91 3 -92 2 c-86 2 -92 3 -96 25 -4 19 -4 18 -6
-5z m-11 -53 c-7 -8 -19 -15 -27 -15 -13 0 -13 3 -3 15 7 8 19 15 27 15 13 0
13 -3 3 -15z"/>
<path d="M2945 170 c3 -5 8 -10 11 -10 2 0 4 5 4 10 0 6 -5 10 -11 10 -5 0 -7
-4 -4 -10z"/>
<path d="M1767 153 c-12 -11 -8 -23 9 -23 8 0 13 4 9 9 -3 5 5 12 17 14 21 4
21 4 -3 6 -14 0 -29 -2 -32 -6z"/>
<path d="M2790 130 c0 -13 18 -22 24 -11 3 5 -1 11 -9 15 -8 3 -15 1 -15 -4z"/>
</g>
</svg>
